# xmcd
#
# Track frame offsets:
#	182
#	23150
#	45625
#	68075
#	89072
#	107317
#	124552
#	143385
#	167977
#	185985
#	207110
#
# Disc length: 2977 seconds
#
# Revision: 9
# Processed by: cddbd v1.5.2PL0 Copyright (c) Steve Scherf et al.
# Submitted via: EasyCDDAExtractor 15.3.0.1
#
DISCID=930b9f0b
DTITLE=Alejandro Sanz - 3
DYEAR=1995
DGENRE=Latin
TTITLE0=La Fuerza Del Corazon
TTITLE1=Por Bandera
TTITLE2=Mi Soledad Y Yo
TTITLE3=Ellos Son Asi
TTITLE4=Quiero Morir En Tu Veneno
TTITLE5=Lo Ves
TTITLE6=Cancion Sin Emocion
TTITLE7=Eres Mia
TTITLE8=Ese Que Me Dio Vida
TTITLE9=Se Me Olvido Todo Al Verte
TTITLE10=Lo Ves (Piano Y Voz)
EXTD=YEAR: 1995 ID3G: 13
EXTT0=
EXTT1=
EXTT2=
EXTT3=
EXTT4=
EXTT5=
EXTT6=
EXTT7=
EXTT8=
EXTT9=
EXTT10=
PLAYORDER=
